<svg viewBox="0 0 72 72" fill="none" xmlns="http://www.w3.org/2000/svg">
<path d="M65.6226 32.0371C65.6226 28.3633 61.3394 25.1054 54.7534 23.1166C56.3379 16.3609 55.646 10.9862 52.493 9.16795C51.7198 8.73445 50.8474 8.51379 49.9632 8.52811C47.0214 8.52811 43.3033 10.6023 39.5482 14.1907C35.7931 10.6289 32.0855 8.56543 29.149 8.56543C28.2511 8.5454 27.3643 8.77012 26.5822 9.21594C23.4451 11.0395 22.7954 16.3822 24.3587 23.1059C17.8045 25.0841 13.5423 28.3153 13.5318 31.9731C13.5212 35.6309 17.8203 38.9047 24.4063 40.8883C22.8218 47.6493 23.5084 53.0186 26.6667 54.8369C27.437 55.2728 28.3084 55.4937 29.1913 55.4767C32.1383 55.4767 35.8564 53.4026 39.6115 49.8141C43.3614 53.3759 47.0689 55.4394 50.0107 55.4394C50.9083 55.456 51.7941 55.2315 52.5775 54.7889C55.7147 52.9653 56.359 47.6226 54.801 40.9256C61.3552 38.9207 65.6174 35.6895 65.6226 32.0371ZM41.9671 15.3958C46.2926 11.4874 48.9967 11.0662 49.9579 11.0662C50.4037 11.0517 50.8451 11.1585 51.236 11.3754C52.7465 12.2445 53.3486 15.3105 52.868 19.3735C52.7448 20.4111 52.5686 21.4415 52.3398 22.4607C50.1513 21.9472 47.9319 21.5785 45.6958 21.357C44.3642 19.4705 42.9103 17.675 41.3439 15.9823C41.5393 15.785 41.7505 15.5877 41.9671 15.3958ZM28.8744 35.0603C29.2863 35.8601 29.7247 36.6599 30.1789 37.4651C30.6331 38.2702 31.1084 39.086 31.6366 39.8912C30.2053 39.6832 28.8163 39.4219 27.4959 39.1127C27.8656 37.7584 28.3357 36.4253 28.8744 35.0603ZM27.4114 24.9081C28.7476 24.5935 30.1472 24.3323 31.5996 24.1297C31.0715 24.9188 30.6172 25.7293 30.1419 26.5771C29.6666 27.4249 29.2494 28.1767 28.8427 28.9871C28.304 27.6008 27.8269 26.2411 27.4114 24.9081ZM30.163 32.0211C30.8179 30.6241 31.538 29.2271 32.3232 27.8301C33.1154 26.4331 33.9657 25.0734 34.8424 23.7724C36.3793 23.6551 37.9637 23.5911 39.5957 23.5964C41.2277 23.6018 42.7646 23.6604 44.2909 23.7831C45.1676 25.0734 46.0074 26.4491 46.7996 27.8088C47.5918 29.1684 48.3206 30.5921 48.9755 31.9837C48.3259 33.3807 47.6024 34.7831 46.8207 36.1694C46.0391 37.5557 45.1782 38.9314 44.3015 40.2324C42.7646 40.3551 41.1801 40.4137 39.5482 40.4137C37.9162 40.4137 36.3793 40.3444 34.853 40.2218C33.9762 38.9314 33.1312 37.5877 32.339 36.1961C31.5468 34.8044 30.8443 33.4127 30.1842 32.0211H30.163ZM47.5179 24.1457C48.9544 24.3483 50.3434 24.6095 51.6585 24.9188C51.2677 26.2358 50.8029 27.5848 50.2642 28.9445C49.847 28.1447 49.4139 27.3449 48.9544 26.5397C48.4949 25.7346 48.009 24.9241 47.539 24.1457H47.5179ZM48.9755 37.4331C49.4297 36.6262 49.8628 35.821 50.2748 35.0177C50.8029 36.404 51.3311 37.769 51.7008 39.102C50.3698 39.4166 48.9703 39.6726 47.5179 39.8752C48.0284 39.086 48.5213 38.272 48.9967 37.4331H48.9755ZM39.5587 17.7952C40.5094 18.8189 41.4442 19.928 42.3579 21.1171C41.4548 21.0797 40.5305 21.0531 39.5957 21.0531C38.6609 21.0531 37.7049 21.0531 36.7807 21.1171C37.6838 19.9333 38.6081 18.8189 39.5587 17.7952ZM27.8445 11.3967C28.2452 11.1816 28.6956 11.0785 29.149 11.0981C30.1006 11.1382 31.0337 11.376 31.8901 11.7966C33.8256 12.7179 35.6074 13.9375 37.1715 15.4118L37.7894 15.9823C36.239 17.6626 34.7993 19.4438 33.4798 21.3143C31.2316 21.5342 28.9999 21.9011 26.7988 22.4127C26.5664 21.3783 26.3762 20.3652 26.2706 19.3895C25.7213 15.3638 26.3551 12.2925 27.8392 11.4181L27.8445 11.3967ZM25.0506 38.4302C24.0583 38.1243 23.0817 37.7684 22.1247 37.3638C18.3749 35.7642 16.051 33.7113 16.051 31.9571C16.051 30.2029 18.3854 28.1607 22.13 26.5877C23.0699 26.1947 24.0289 25.8494 25.0031 25.5533C25.6633 27.7624 26.4679 29.9248 27.4114 32.0264C26.4879 34.1071 25.6993 36.2462 25.0506 38.4302ZM37.1979 48.6144C32.8724 52.5228 30.1683 52.9387 29.2018 52.9387C28.756 52.9537 28.3144 52.8468 27.9237 52.6294C26.4132 51.7603 25.8111 48.6944 26.2917 44.6313C26.4144 43.5954 26.5907 42.5667 26.8199 41.5494C29.009 42.0585 31.2283 42.4254 33.4639 42.6478C34.7939 44.5356 36.2478 46.3312 37.8158 48.0225L37.1979 48.6144ZM39.6115 46.2096C38.6609 45.1859 37.7261 44.0768 36.8071 42.8878C37.7155 42.9304 38.6398 42.9518 39.5746 42.9518C40.5094 42.9518 41.4653 42.9518 42.3896 42.8931C41.4759 44.0768 40.5464 45.1859 39.6063 46.2096H39.6115ZM51.3258 52.6081C50.9251 52.8297 50.4726 52.9384 50.016 52.9227C49.0548 52.9227 46.319 52.4961 42.0093 48.6037L41.3914 48.0332C42.9401 46.3528 44.378 44.5716 45.6958 42.7011C47.9461 42.4843 50.1797 42.1174 52.3821 41.6028C52.6144 42.6372 52.7993 43.6503 52.9102 44.626C53.4331 48.6464 52.8257 51.7176 51.3205 52.5868L51.3258 52.6081ZM57.0297 37.4438C56.1266 37.817 55.1707 38.1636 54.1566 38.4728C53.4938 36.264 52.6875 34.1016 51.743 31.9997C52.6707 29.9214 53.4629 27.784 54.1144 25.6013C55.1067 25.9072 56.0833 26.2631 57.0403 26.6677C60.7848 28.2673 63.1139 30.3202 63.1087 32.0744C63.1034 33.8286 60.7743 35.8495 57.0244 37.4224L57.0297 37.4438ZM39.5587 36.8999C40.5176 36.9009 41.4553 36.6149 42.2532 36.0779C43.0511 35.541 43.6734 34.7772 44.0413 33.8832C44.4092 32.9892 44.5063 32.0051 44.3202 31.0554C44.1342 30.1057 43.6734 29.233 42.996 28.5477C42.3187 27.8624 41.4553 27.3953 40.5151 27.2054C39.5748 27.0155 38.5998 27.1113 37.7135 27.4808C36.8272 27.8503 36.0693 28.4769 35.5357 29.2812C35.0021 30.0856 34.7167 31.0316 34.7156 31.9997C34.7143 32.6427 34.8385 33.2797 35.0813 33.8741C35.324 34.4686 35.6806 35.0089 36.1304 35.464C36.5803 35.9192 37.1146 36.2803 37.7029 36.5267C38.2912 36.7731 38.9218 36.8999 39.5587 36.8999V36.8999ZM7.34194 2.5029V61.5019H71.8125V2.5029H7.34194ZM69.2932 58.9639H9.86647V5.04628H69.2932V58.9639ZM24.401 40.8883C22.8166 47.6493 23.5031 53.0186 26.6614 54.8369C27.4317 55.2728 28.3031 55.4937 29.186 55.4767C32.133 55.4767 35.8512 53.4026 39.6063 49.8141C43.3561 53.3759 47.0637 55.4394 50.0054 55.4394C50.903 55.456 51.7888 55.2315 52.5722 54.7889C55.7094 52.9653 56.3537 47.6226 54.7957 40.9256C61.3499 38.9421 65.6121 35.7108 65.6174 32.0584C65.6226 28.406 61.3341 25.1267 54.7481 23.1379C56.3326 16.3822 55.6407 11.0075 52.4877 9.18928C51.7146 8.75577 50.8421 8.53512 49.9579 8.54943C47.0161 8.54943 43.298 10.6236 39.5429 14.2121C35.7878 10.6503 32.0802 8.58676 29.1437 8.58676C28.2458 8.56673 27.3591 8.79145 26.5769 9.23727C23.4398 11.0608 22.7902 16.4035 24.3535 23.1272C17.7992 25.1054 13.5371 28.3366 13.5265 31.9944C13.5159 35.6522 17.8203 38.8941 24.4063 40.8883H24.401ZM37.1874 48.6144C32.8619 52.5228 30.1578 52.9387 29.1913 52.9387C28.7454 52.9537 28.3038 52.8468 27.9131 52.6294C26.4027 51.7603 25.8006 48.6944 26.2812 44.6313C26.4038 43.5954 26.5801 42.5667 26.8093 41.5494C28.9985 42.0585 31.2177 42.4254 33.4534 42.6478C34.7834 44.5356 36.2373 46.3312 37.8053 48.0225L37.1874 48.6144ZM50.2801 28.9445C49.8628 28.1447 49.4297 27.3449 48.9703 26.5397C48.5108 25.7346 48.0196 24.9401 47.5337 24.1457C48.9703 24.3483 50.3593 24.6095 51.6744 24.9188C51.2888 26.2358 50.824 27.5848 50.2853 28.9445H50.2801ZM51.7166 39.0754C50.3857 39.39 48.9861 39.6459 47.5337 39.8485C48.0302 39.0594 48.516 38.2453 48.9914 37.4064C49.4667 36.5675 49.8998 35.7624 50.2906 34.991C50.8452 36.404 51.3258 37.7583 51.706 39.102L51.7166 39.0754ZM48.965 31.9571C48.3154 33.3541 47.5918 34.7564 46.8101 36.1427C46.0285 37.5291 45.1676 38.9047 44.2909 40.2058C42.754 40.3284 41.1696 40.387 39.5376 40.387C37.9056 40.387 36.3687 40.3177 34.8424 40.1951C33.9657 38.9047 33.1206 37.5611 32.3284 36.1694C31.5362 34.7777 30.8127 33.3861 30.1525 31.9944C30.8074 30.5974 31.5274 29.2004 32.3126 27.8034C33.1048 26.4064 33.9551 25.0468 34.8318 23.7457C36.3687 23.6284 37.9532 23.5645 39.5851 23.5698C41.2171 23.5751 42.754 23.6338 44.2803 23.7564C45.1571 25.0468 45.9968 26.4224 46.789 27.7821C47.5812 29.1418 48.3154 30.5921 48.9703 31.9837L48.965 31.9571ZM31.6366 39.8912C30.2053 39.6832 28.8163 39.4219 27.4959 39.1127C27.8867 37.801 28.3568 36.4467 28.8955 35.087C29.3074 35.8868 29.7458 36.6866 30.2 37.4917C30.6542 38.2969 31.1084 39.086 31.6366 39.8912ZM30.163 26.5611C29.7036 27.3609 29.2705 28.1607 28.8638 28.9711C28.311 27.5955 27.8269 26.2411 27.4114 24.9081C28.7476 24.5935 30.1472 24.3323 31.5996 24.1297C31.1084 24.9188 30.6384 25.7346 30.163 26.5611ZM39.6063 46.2096C38.6556 45.1859 37.7208 44.0768 36.8018 42.8878C37.7102 42.9304 38.6345 42.9518 39.5693 42.9518C40.5041 42.9518 41.46 42.9518 42.3843 42.8931C41.4759 44.0768 40.5464 45.1859 39.6063 46.2096ZM51.3205 52.6081C50.9198 52.8297 50.4673 52.9384 50.0107 52.9227C49.0495 52.9227 46.3137 52.4961 42.004 48.6037L41.3861 48.0332C42.9348 46.3528 44.3727 44.5716 45.6905 42.7011C47.9408 42.4843 50.1745 42.1174 52.3768 41.6028C52.6092 42.6372 52.794 43.6503 52.9049 44.626C53.4331 48.6464 52.8257 51.7176 51.3205 52.5868V52.6081ZM54.1091 25.596C55.1014 25.9018 56.078 26.2577 57.035 26.6624C60.7796 28.262 63.1087 30.3148 63.1034 32.0691C63.0981 33.8233 60.7743 35.8868 57.0244 37.4598C56.1213 37.833 55.1654 38.1796 54.1513 38.4888C53.4885 36.28 52.6822 34.1176 51.7377 32.0157C52.6672 29.9235 53.4593 27.7718 54.1091 25.5746V25.596ZM41.9618 15.4171C46.2873 11.5087 48.9914 11.0875 49.9526 11.0875C50.3984 11.073 50.8398 11.1798 51.2307 11.3967C52.7412 12.2659 53.3433 15.3318 52.8627 19.3948C52.7396 20.4324 52.5633 21.4629 52.3345 22.4821C50.146 21.9685 47.9266 21.5998 45.6905 21.3783C44.3589 19.4918 42.9051 17.6963 41.3386 16.0036C41.5393 15.785 41.7505 15.5877 41.9671 15.3958L41.9618 15.4171ZM39.5587 17.7952C40.5094 18.8189 41.4442 19.928 42.3579 21.1171C41.4548 21.0797 40.5305 21.0531 39.5957 21.0531C38.6609 21.0531 37.7049 21.0531 36.7807 21.1171C37.6838 19.9333 38.6081 18.8189 39.5587 17.7952ZM27.8445 11.3967C28.2452 11.1816 28.6956 11.0785 29.149 11.0981C30.1006 11.1382 31.0337 11.376 31.8901 11.7966C33.8256 12.7179 35.6074 13.9375 37.1715 15.4118L37.7894 15.9823C36.239 17.6626 34.7993 19.4438 33.4798 21.3143C31.2316 21.5342 28.9999 21.9011 26.7988 22.4127C26.5664 21.3783 26.3762 20.3652 26.2706 19.3895C25.7213 15.3638 26.3551 12.2925 27.8392 11.4181L27.8445 11.3967ZM22.13 26.5877C23.0699 26.1947 24.0289 25.8494 25.0031 25.5533C25.6633 27.7624 26.4679 29.9248 27.4114 32.0264C26.4846 34.1051 25.6924 36.2424 25.04 38.4249C24.0477 38.119 23.0712 37.7631 22.1141 37.3584C18.3643 35.7588 16.0405 33.706 16.0405 31.9518C16.0405 30.1975 18.3854 28.1607 22.13 26.5877ZM39.5587 27.1209C38.5998 27.1199 37.6621 27.4059 36.8642 27.9429C36.0663 28.4799 35.4441 29.2436 35.0762 30.1377C34.7082 31.0317 34.6112 32.0157 34.7972 32.9654C34.9833 33.9151 35.4441 34.7878 36.1214 35.4731C36.7987 36.1584 37.6621 36.6256 38.6024 36.8155C39.5427 37.0054 40.5176 36.9095 41.404 36.54C42.2903 36.1705 43.0482 35.5439 43.5818 34.7396C44.1154 33.9352 44.4008 32.9892 44.4018 32.0211C44.4067 31.3758 44.285 30.736 44.0438 30.1385C43.8026 29.541 43.4466 28.9975 42.9964 28.5395C42.5462 28.0815 42.0107 27.718 41.4207 27.47C40.8307 27.2219 40.1979 27.0943 39.5587 27.0943V27.1209ZM39.5587 27.1209C38.5998 27.1199 37.6621 27.4059 36.8642 27.9429C36.0663 28.4799 35.4441 29.2436 35.0762 30.1377C34.7082 31.0317 34.6112 32.0157 34.7972 32.9654C34.9833 33.9151 35.4441 34.7878 36.1214 35.4731C36.7987 36.1584 37.6621 36.6256 38.6024 36.8155C39.5427 37.0054 40.5176 36.9095 41.404 36.54C42.2903 36.1705 43.0482 35.5439 43.5818 34.7396C44.1154 33.9352 44.4008 32.9892 44.4018 32.0211C44.4067 31.3758 44.285 30.736 44.0438 30.1385C43.8026 29.541 43.4466 28.9975 42.9964 28.5395C42.5462 28.0815 42.0107 27.718 41.4207 27.47C40.8307 27.2219 40.1979 27.0943 39.5587 27.0943V27.1209ZM39.5587 27.1209C38.5998 27.1199 37.6621 27.4059 36.8642 27.9429C36.0663 28.4799 35.4441 29.2436 35.0762 30.1377C34.7082 31.0317 34.6112 32.0157 34.7972 32.9654C34.9833 33.9151 35.4441 34.7878 36.1214 35.4731C36.7987 36.1584 37.6621 36.6256 38.6024 36.8155C39.5427 37.0054 40.5176 36.9095 41.404 36.54C42.2903 36.1705 43.0482 35.5439 43.5818 34.7396C44.1154 33.9352 44.4008 32.9892 44.4018 32.0211C44.4067 31.3758 44.285 30.736 44.0438 30.1385C43.8026 29.541 43.4466 28.9975 42.9964 28.5395C42.5462 28.0815 42.0107 27.718 41.4207 27.47C40.8307 27.2219 40.1979 27.0943 39.5587 27.0943V27.1209ZM65.6226 32.0477C65.6226 28.374 61.3394 25.1161 54.7534 23.1272C56.3379 16.3715 55.646 10.9968 52.493 9.17861C51.7198 8.74511 50.8474 8.52445 49.9632 8.53877C47.0214 8.53877 43.3033 10.6129 39.5482 14.2014C35.7931 10.6396 32.0855 8.57609 29.149 8.57609C28.2511 8.55606 27.3643 8.78078 26.5822 9.2266C23.4451 11.0502 22.7954 16.3929 24.3587 23.1166C17.8045 25.0948 13.5423 28.326 13.5318 31.9837C13.5212 35.6415 17.8203 38.9154 24.4063 40.8989C22.8218 47.6599 23.5084 53.0293 26.6667 54.8475C27.437 55.2835 28.3084 55.5043 29.1913 55.4874C32.1383 55.4874 35.8564 53.4132 39.6115 49.8248C43.3614 53.3866 47.0689 55.4501 50.0107 55.4501C50.9083 55.4667 51.7941 55.2422 52.5775 54.7996C55.7147 52.976 56.359 47.6333 54.801 40.9362C61.3552 38.9207 65.6174 35.6895 65.6226 32.0371V32.0477ZM41.9671 15.3958C46.2926 11.4874 48.9967 11.0662 49.9579 11.0662C50.4037 11.0517 50.8451 11.1585 51.236 11.3754C52.7465 12.2445 53.3486 15.3105 52.868 19.3735C52.7448 20.4111 52.5686 21.4415 52.3398 22.4607C50.1513 21.9472 47.9319 21.5785 45.6958 21.357C44.3642 19.4705 42.9103 17.675 41.3439 15.9823C41.5393 15.785 41.7505 15.5877 41.9671 15.3958ZM28.8744 35.0603C29.2863 35.8601 29.7247 36.6599 30.1789 37.4651C30.6331 38.2702 31.1084 39.086 31.6366 39.8912C30.2053 39.6832 28.8163 39.4219 27.4959 39.1127C27.8656 37.7584 28.3357 36.4253 28.8744 35.0603ZM27.4114 24.9081C28.7476 24.5935 30.1472 24.3323 31.5996 24.1297C31.0715 24.9188 30.6172 25.7293 30.1419 26.5771C29.6666 27.4249 29.2494 28.1767 28.8427 28.9871C28.304 27.6008 27.8269 26.2411 27.4114 24.9081ZM30.163 32.0211C30.8179 30.6241 31.538 29.2271 32.3232 27.8301C33.1154 26.4331 33.9657 25.0734 34.8424 23.7724C36.3793 23.6551 37.9637 23.5911 39.5957 23.5964C41.2277 23.6018 42.7646 23.6604 44.2909 23.7831C45.1676 25.0734 46.0074 26.4491 46.7996 27.8088C47.5918 29.1684 48.3206 30.5921 48.9755 31.9837C48.3259 33.3807 47.6024 34.7831 46.8207 36.1694C46.0391 37.5557 45.1782 38.9314 44.3015 40.2324C42.7646 40.3551 41.1801 40.4137 39.5482 40.4137C37.9162 40.4137 36.3793 40.3444 34.853 40.2218C33.9762 38.9314 33.1312 37.5877 32.339 36.1961C31.5468 34.8044 30.8443 33.4127 30.1842 32.0211H30.163ZM47.5179 24.1457C48.9544 24.3483 50.3434 24.6095 51.6585 24.9188C51.2677 26.2358 50.8029 27.5848 50.2642 28.9445C49.847 28.1447 49.4139 27.3449 48.9544 26.5397C48.4949 25.7346 48.009 24.9241 47.539 24.1457H47.5179ZM48.9755 37.4331C49.4297 36.6262 49.8628 35.821 50.2748 35.0177C50.8029 36.404 51.3311 37.769 51.7008 39.102C50.3698 39.4166 48.9703 39.6726 47.5179 39.8752C48.0284 39.086 48.5213 38.272 48.9967 37.4331H48.9755ZM39.5587 17.7952C40.5094 18.8189 41.4442 19.928 42.3579 21.1171C41.4548 21.0797 40.5305 21.0531 39.5957 21.0531C38.6609 21.0531 37.7049 21.0531 36.7807 21.1171C37.6838 19.9333 38.6081 18.8189 39.5587 17.7952ZM27.8445 11.3967C28.2452 11.1816 28.6956 11.0785 29.149 11.0981C30.1006 11.1382 31.0337 11.376 31.8901 11.7966C33.8256 12.7179 35.6074 13.9375 37.1715 15.4118L37.7894 15.9823C36.239 17.6626 34.7993 19.4438 33.4798 21.3143C31.2316 21.5342 28.9999 21.9011 26.7988 22.4127C26.5664 21.3783 26.3762 20.3652 26.2706 19.3895C25.7213 15.3638 26.3551 12.2925 27.8392 11.4181L27.8445 11.3967ZM25.0506 38.4302C24.0583 38.1243 23.0817 37.7684 22.1247 37.3638C18.3749 35.7642 16.051 33.7113 16.051 31.9571C16.051 30.2029 18.3854 28.1607 22.13 26.5877C23.0699 26.1947 24.0289 25.8494 25.0031 25.5533C25.6633 27.7624 26.4679 29.9248 27.4114 32.0264C26.4879 34.1071 25.6993 36.2462 25.0506 38.4302ZM37.1979 48.6144C32.8724 52.5228 30.1683 52.9387 29.2018 52.9387C28.756 52.9537 28.3144 52.8468 27.9237 52.6294C26.4132 51.7603 25.8111 48.6944 26.2917 44.6313C26.4144 43.5954 26.5907 42.5667 26.8199 41.5494C29.009 42.0585 31.2283 42.4254 33.4639 42.6478C34.7939 44.5356 36.2478 46.3312 37.8158 48.0225L37.1979 48.6144ZM39.6115 46.2096C38.6609 45.1859 37.7261 44.0768 36.8071 42.8878C37.7155 42.9304 38.6398 42.9518 39.5746 42.9518C40.5094 42.9518 41.4653 42.9518 42.3896 42.8931C41.4759 44.0768 40.5464 45.1859 39.6063 46.2096H39.6115ZM51.3258 52.6081C50.9251 52.8297 50.4726 52.9384 50.016 52.9227C49.0548 52.9227 46.319 52.4961 42.0093 48.6037L41.3914 48.0332C42.9401 46.3528 44.378 44.5716 45.6958 42.7011C47.9461 42.4843 50.1797 42.1174 52.3821 41.6028C52.6144 42.6372 52.7993 43.6503 52.9102 44.626C53.4331 48.6464 52.8257 51.7176 51.3205 52.5868L51.3258 52.6081ZM57.0297 37.4438C56.1266 37.817 55.1707 38.1636 54.1566 38.4728C53.4938 36.264 52.6875 34.1016 51.743 31.9997C52.6707 29.9214 53.4629 27.784 54.1144 25.6013C55.1067 25.9072 56.0833 26.2631 57.0403 26.6677C60.7848 28.2673 63.1139 30.3202 63.1087 32.0744C63.1034 33.8286 60.7743 35.8495 57.0244 37.4224L57.0297 37.4438ZM39.5587 36.8999C40.5176 36.9009 41.4553 36.6149 42.2532 36.0779C43.0511 35.541 43.6734 34.7772 44.0413 33.8832C44.4092 32.9892 44.5063 32.0051 44.3202 31.0554C44.1342 30.1057 43.6734 29.233 42.996 28.5477C42.3187 27.8624 41.4553 27.3953 40.5151 27.2054C39.5748 27.0155 38.5998 27.1113 37.7135 27.4808C36.8272 27.8503 36.0693 28.4769 35.5357 29.2812C35.0021 30.0856 34.7167 31.0316 34.7156 31.9997C34.7143 32.6427 34.8385 33.2797 35.0813 33.8741C35.324 34.4686 35.6806 35.0089 36.1304 35.464C36.5803 35.9192 37.1146 36.2803 37.7029 36.5267C38.2912 36.7731 38.9218 36.8999 39.5587 36.8999V36.8999ZM2.94778 65.9595V6.93916L0.417969 9.49854V68.5029H64.878L67.4025 65.9595H2.94778Z" fill="#09D3AC"/>
</svg>
