<svg width="100" height="100" viewBox="0 0 100 100" fill="none" xmlns="http://www.w3.org/2000/svg">
<rect width="100" height="100" rx="22" fill="#915CE6"/>
<circle cx="50" cy="50" r="10" fill="white"/>
<path fill-rule="evenodd" clip-rule="evenodd" d="M31 50C31 55.3476 33.2039 60.1733 36.7635 63.6307L31.1896 69.3693C26.1432 64.4677 23 57.5974 23 50C23 35.0883 35.0883 23 50 23V17L61 27L50 37V31C39.5066 31 31 39.5066 31 50ZM69 50C69 44.6524 66.7961 39.8267 63.2365 36.3693L68.8104 30.6307C73.8568 35.5323 77 42.4026 77 50C77 64.9117 64.9117 77 50 77V83L39 73L50 63V69C60.4934 69 69 60.4934 69 50Z" fill="white"/>
</svg>
