<svg width="100" height="100" viewBox="0 0 100 100" fill="none" xmlns="http://www.w3.org/2000/svg">
<rect width="100" height="100" rx="22" fill="#F47C25"/>
<path fill-rule="evenodd" clip-rule="evenodd" d="M70.5267 23.9631C71.8109 22.679 73.8209 22.679 75.1051 23.9631C76.3893 25.2473 76.3893 27.2574 75.2168 28.5416L68.9075 34.8509C71.9784 39.9319 71.3642 46.6321 66.9532 51.043L64.999 52.9972C64.7757 53.2206 64.4965 53.3322 64.2173 53.3322C63.9382 53.3322 63.659 53.2206 63.4356 52.9972L46.1269 35.6885C45.6802 35.2976 45.6802 34.6276 46.1269 34.1809L48.0811 32.2267C52.4362 27.8716 59.1922 27.2016 64.2732 30.2725L70.5267 23.9631ZM46.2385 56.6823L51.3753 51.5455C52.3804 50.5963 53.9437 50.5963 55.0046 51.4897C56.0096 52.4947 56.0096 54.0581 55.0046 55.0631L49.8678 60.1999L52.9945 63.3266C53.4412 63.7175 53.4412 64.3875 52.9945 64.8342L51.0403 66.7884C48.4719 69.4126 45.066 70.6968 41.6601 70.6968C39.315 70.6968 36.9141 70.0268 34.8482 68.7984L28.5389 75.1078C27.9247 75.722 27.0872 76.057 26.2497 76.057C25.4122 76.057 24.5746 75.722 23.9605 75.1078C22.6763 73.8236 22.6763 71.8135 23.9605 70.5293L30.2698 64.22C27.1989 59.139 27.8131 52.4388 32.224 48.0279L34.1224 46.0737C34.5132 45.627 35.1833 45.627 35.6299 46.0737L38.7567 49.2004L43.8935 44.0636C44.8985 43.0586 46.4619 43.0586 47.4669 44.0636C48.4719 45.0687 48.4719 46.632 47.4669 47.6371L42.3301 52.7739L46.2385 56.6823Z" fill="white"/>
</svg>
