<svg width="100" height="100" viewBox="0 0 100 100" fill="none" xmlns="http://www.w3.org/2000/svg">
<rect width="100" height="100" rx="22" fill="#055FE6"/>
<path fill-rule="evenodd" clip-rule="evenodd" d="M53.3152 22.3732L77.6268 46.6848C79.4577 48.5157 79.4577 51.4843 77.6268 53.3152L53.3152 77.6268C51.4843 79.4577 48.5157 79.4577 46.6848 77.6268L22.3732 53.3152C20.5423 51.4843 20.5423 48.5157 22.3732 46.6848L46.6848 22.3732C48.5157 20.5423 51.4843 20.5423 53.3152 22.3732ZM54.6884 34.3719V42.186H46.8744L46.3234 42.2019C41.4012 42.4871 37.4975 46.5691 37.4975 51.5628V60.9397H43.7488V51.5628L43.7698 51.1983C43.9504 49.6438 45.2715 48.4372 46.8744 48.4372H54.6884V56.2512L65.6281 45.3116L54.6884 34.3719Z" fill="white"/>
</svg>
