<svg viewBox="0 0 100 100" fill="none" xmlns="http://www.w3.org/2000/svg">
<rect width="100" height="100" rx="22" fill="#764ABC"/>
<path fill-rule="evenodd" clip-rule="evenodd" d="M40.7213 65.9804C38.3952 65.9804 36.4568 64.1196 36.3793 61.7935C36.3017 60.9406 36.5343 60.0877 36.922 59.5449C32.58 52.0239 30.2539 42.4869 33.8206 32.5623C36.3793 25.1188 42.8148 20.0789 49.793 20.0789C57.2365 20.0789 64.9902 26.592 65.9206 39.1529C64.7576 38.7652 63.0518 38.2224 62.0438 37.9898C61.8112 33.8804 58.322 23.6456 50.1032 23.8007C47.1568 23.8782 42.8148 25.2739 40.5662 28.1427C37.8524 31.4768 36.3017 35.5086 35.9916 40.1608C35.5264 46.3637 36.8445 52.1014 40.0235 57.3739C40.1785 57.2964 40.4111 57.2964 40.5662 57.2964H40.7213C43.0474 57.2964 44.9858 59.1572 45.0633 61.4833C45.1409 63.8869 43.28 65.9029 40.8764 65.9804H40.7213ZM75.7677 50.8609C69.875 43.9601 61.1909 40.1608 51.2662 40.1608H50.0257C49.3278 38.7652 47.8546 37.8348 46.2264 37.8348H46.0713C43.6677 37.9123 41.8068 39.9282 41.8843 42.3319C41.9619 44.658 43.9003 46.5188 46.2264 46.5188H46.3815C48.0873 46.4413 49.5604 45.3558 50.1807 43.8826H51.5764C57.4692 43.8826 63.0518 45.5884 68.0916 48.9225C71.9684 51.4812 74.7598 54.8152 76.3105 58.8471C77.6286 62.1036 77.5511 65.2826 76.1554 67.9964C73.9844 72.1058 70.3402 74.3544 65.5329 74.3544C62.4315 74.3544 59.4851 73.4239 57.9344 72.7261C57.0815 73.5015 55.5307 74.7421 54.4452 75.5174C57.7793 77.0681 61.1909 77.921 64.4474 77.921C71.8909 77.921 77.396 73.8116 79.4895 69.7022C81.738 65.2051 81.583 57.4514 75.7677 50.8609ZM62.1213 60.4754C64.3699 60.2428 66.0757 58.3043 65.9981 55.9782C65.9206 53.6522 63.9822 51.7913 61.6561 51.7913H61.501C59.0974 51.8688 57.2365 53.8848 57.3141 56.2884C57.3916 57.4514 57.8568 58.4594 58.5546 59.1572C55.9184 64.3522 51.8865 68.1515 45.8387 71.3304C41.7293 73.5015 37.4648 74.2768 33.2003 73.7341C29.7111 73.2689 26.9974 71.7181 25.2916 69.1594C22.8104 65.3601 22.5778 61.2507 24.6713 57.1413C26.1445 54.1949 28.4705 52.0239 29.9437 50.9384C29.6336 49.9304 29.1684 48.2246 28.9358 46.984C17.693 55.1254 18.856 66.1355 22.2676 71.3304C24.8263 75.2073 30.0213 77.6109 35.759 77.6109C37.3097 77.6109 38.8604 77.4558 40.4111 77.0681C50.3358 75.1297 57.8568 69.237 62.1213 60.4754Z" fill="white"/>
</svg>
