<?xml version="1.0" standalone="no"?>
<!DOCTYPE svg PUBLIC "-//W3C//DTD SVG 20010904//EN"
 "http://www.w3.org/TR/2001/REC-SVG-20010904/DTD/svg10.dtd">
<svg version="1.0" xmlns="http://www.w3.org/2000/svg"
 width="700.000000pt" height="700.000000pt" viewBox="0 0 700.000000 700.000000"
 preserveAspectRatio="xMidYMid meet">
<metadata>
Created by potrace 1.11, written by Peter Selinger 2001-2013
</metadata>
<g transform="translate(0.000000,700.000000) scale(0.100000,-0.100000)"
fill="#000000" stroke="none">
<path d="M4457 6324 c-1 -1 -34 -4 -74 -8 -39 -3 -91 -10 -115 -15 -23 -5 -54
-12 -68 -14 -14 -3 -59 -16 -101 -30 -286 -96 -529 -281 -711 -542 -189 -270
-278 -609 -244 -924 21 -196 63 -334 159 -520 76 -147 172 -268 327 -413 149
-139 461 -289 650 -314 14 -2 50 -6 80 -10 73 -9 257 -10 345 -1 443 44 871
346 1079 762 55 110 109 256 120 329 4 21 8 41 10 45 9 15 20 155 20 261 0
104 -7 189 -19 244 -3 12 -7 33 -10 49 -11 62 -17 80 -41 149 -57 158 -145
317 -243 438 -120 149 -300 291 -476 375 -157 75 -280 112 -440 131 -56 6
-243 13 -248 8z m243 -719 c225 -70 403 -251 475 -485 26 -85 29 -276 5 -368
-82 -314 -372 -541 -668 -526 -260 14 -494 197 -589 458 -42 117 -52 298 -23
411 38 146 141 304 260 400 67 54 192 111 270 122 19 3 37 7 39 9 10 10 182
-6 231 -21z"/>
<path d="M1810 5904 c-14 -3 -67 -11 -118 -20 -384 -62 -646 -280 -733 -610
-28 -107 -34 -301 -13 -404 50 -239 182 -406 419 -528 152 -78 326 -128 660
-187 257 -46 308 -60 351 -100 39 -37 44 -75 17 -132 -18 -40 -86 -88 -136
-97 -18 -3 -43 -8 -57 -11 -32 -7 -198 -7 -230 0 -14 3 -41 8 -60 11 -131 21
-321 102 -563 242 -47 27 -91 28 -127 2 -26 -19 -120 -145 -238 -320 -61 -91
-94 -158 -87 -179 14 -46 175 -171 325 -253 130 -71 296 -131 460 -167 145
-31 199 -35 410 -35 202 0 269 5 380 31 36 8 72 16 80 18 39 8 161 59 215 90
184 103 309 271 363 490 32 129 21 384 -22 503 -68 190 -203 339 -406 448 -98
53 -286 116 -410 138 -19 3 -45 8 -57 11 -32 7 -52 11 -98 20 -22 5 -42 9 -45
10 -3 0 -23 4 -45 9 -84 16 -185 51 -272 94 -89 44 -113 80 -90 135 22 50 59
74 138 87 69 12 256 9 327 -5 84 -16 276 -82 307 -106 15 -11 165 -84 203 -99
26 -10 38 -10 55 -1 26 15 90 95 199 251 106 151 152 234 144 263 -17 70 -250
221 -477 311 -65 25 -227 69 -304 81 -46 8 -428 15 -465 9z"/>
<path d="M5660 3700 c-124 -3 -233 -9 -242 -14 -10 -4 -22 -25 -28 -45 -12
-46 -21 -2546 -9 -2578 10 -28 45 -50 89 -57 40 -6 485 -8 543 -2 40 4 61 17
80 50 9 16 12 168 13 586 1 311 3 878 4 1260 2 382 -1 712 -5 733 -7 37 -17
49 -45 54 -65 13 -209 17 -400 13z"/>
<path d="M3639 3466 c-2 -2 -26 -7 -54 -10 -314 -42 -696 -260 -885 -506 -19
-25 -37 -47 -41 -50 -16 -13 -106 -162 -136 -228 -40 -84 -91 -230 -99 -282
-3 -19 -12 -64 -18 -100 -17 -90 -20 -290 -6 -391 71 -496 363 -890 818 -1101
193 -89 376 -126 610 -123 183 2 240 8 352 37 41 10 85 21 96 23 40 9 209 83
273 119 109 62 202 134 302 235 141 142 279 345 279 411 0 36 -52 63 -327 171
-223 87 -291 106 -322 90 -11 -6 -47 -44 -80 -85 -139 -170 -280 -257 -471
-292 -42 -8 -194 -8 -234 -1 -115 23 -257 101 -345 188 -96 97 -165 222 -195
355 -13 61 -14 226 -1 289 48 233 237 452 452 524 77 26 122 32 219 32 186 -1
339 -61 465 -183 41 -40 95 -99 119 -132 50 -67 77 -80 140 -71 45 7 423 152
482 185 10 6 24 10 31 10 8 0 26 11 41 25 37 35 31 75 -27 167 -156 249 -379
454 -611 564 -209 98 -340 126 -612 131 -115 2 -212 2 -215 -1z"/>
</g>
</svg>
