<?xml version="1.0" encoding="utf-8"?>
<!-- Generator: Adobe Illustrator 22.0.1, SVG Export Plug-In . SVG Version: 6.00 Build 0)  -->
<svg version="1.1" id="Layer_1" xmlns="http://www.w3.org/2000/svg" xmlns:xlink="http://www.w3.org/1999/xlink" x="0px" y="0px"
	 viewBox="0 0 350 350" style="enable-background:new 0 0 350 350;" xml:space="preserve">
<style type="text/css">
	.st0{fill:#0A0A0A;}
	.st1{fill:#FFFFFF;}
</style>
<rect x="1" class="st0" width="350" height="350"/>
<g>
	<g>
		<path class="st1" d="M213.5,34.9c14.4-2.5,29.6-1.2,42.8,5.3c20.6,9.4,35.9,29.5,39.6,51.8c2.6,15.2,0.1,31.4-7.5,45
			c-11.8,22.3-36.4,37.5-61.9,36.8c-17.9,0.4-35.6-7.2-48.3-19.7c-15.8-15.1-23.8-37.9-20.8-59.5C161.3,65.5,184.7,40.1,213.5,34.9z
			 M220.4,69.3c-15.6,3.6-27,19.2-26.3,35.2c0,16.9,13.7,33.2,30.9,34.2c19.2,1.5,36-17,35-35.7C260.3,82.9,240.3,64.5,220.4,69.3z"
			/>
	</g>
	<path class="st1" d="M63.1,64.1c11.6-8.2,26.4-10,40.4-9.6c16.6,0,32.8,6.2,46.1,16.2c1.7,1.1,2.5,3,3.7,4.6
		c-1.9,5.1-5.4,9.3-8.4,13.6c-3,4.3-5.7,8.9-9.8,12.3c-2.8-0.8-5.5-1.8-8-3.3C115.7,91.1,102,87.6,89,90.3c-4.4,0.6-7.5,6.6-3.2,9.4
		c12.6,7.8,28.2,6.8,41.8,12.2c13.4,4.4,25.8,15.1,28.8,29.4c2.5,12.5,1,26.4-7.1,36.7c-7.1,9.1-18.4,13.7-29.6,15.5
		c-21.2,3-43.9,0-62.3-11.4c-4.7-3.2-10.1-6-13-11.1c3-7.8,9-14,13.3-20.9c1.8-3.2,5.5-6.5,9.3-3.7c13.2,8,28.4,15.4,44.3,12.7
		c4.6-0.7,9.6-3.7,9.3-8.9c-0.8-4.3-5.8-5.3-9.3-6.2c-17.4-3.3-36.3-4.8-51-15.9c-10-7.6-14.8-20.5-13.7-32.8
		C46.9,82.9,53,71,63.1,64.1z"/>
	<path class="st1" d="M270.3,166.1c4-2.1,8.7-0.8,13.2-1.1c7.1,0.3,14.3-1,21.2,1.1c0.7,2.5,1.1,5,1,7.6c0,39.2-0.7,78.5-0.3,117.7
		c0.1,3-0.1,7.9-4,8.4c-8.7,0.6-17.4,0.1-26.2,0.1c-2.9,0.1-6.6-1.1-6.4-4.6c-0.6-41.1,0.4-82.1,0.3-123.2
		C268.9,170,269,167.8,270.3,166.1z"/>
	<path class="st1" d="M142.4,194.7c13.2-11.6,30.6-18.8,48.3-18.3c17.7-0.6,35.7,5.4,48.7,17.6c6.1,5.7,11.4,12.3,15.8,19.4
		c1.8,2.2,1.9,6.2-1.2,7.2c-7.2,3.3-14.7,5.8-22,8.9c-3.3,1.4-8.3,2.9-10.5-1c-4.8-6.8-10.9-13-19.1-15.5
		c-9.1-2.6-19.5-2.5-27.7,2.6c-11.4,6.5-18.6,19.7-17.6,32.8c0.6,17.9,17,34.2,35.2,32.8c8.3-0.1,16.2-3.7,22.4-9.1
		c3.6-3,6-7.3,9.4-10.5c6.1,0,11.5,3.2,17,5.3c5.3,2.2,11.1,3.6,15.6,7.2c-0.7,6.4-5.7,11.1-9.1,16.1
		c-13.2,16.8-34.3,26.6-55.5,26.2c-15.8,0.8-31.6-4.6-44.3-14c-16.1-11.5-26.6-30.3-28.1-50.1C117.5,230.8,126.2,208.8,142.4,194.7z
		"/>
</g>
</svg>
