<svg id="Layer_1" data-name="Layer 1" xmlns="http://www.w3.org/2000/svg" viewBox="0 0 368.5 368.5"><defs><style>.cls-1{fill:#231f20;}</style></defs><title>UoN</title><path class="cls-1" d="M42.42,222.59H56.25v2.13H50.79v14.42H47.85V224.72H42.42Z"/><path class="cls-1" d="M72.59,231.69H64.82v7.45H61.88V222.59h2.94v7h7.77v-7h2.94v16.55H72.59Z"/><path class="cls-1" d="M93.29,239.14H83V222.59H93v2.13H85.9v4.83h5.19v2.14H85.9V237h7.39Z"/><path class="cls-1" d="M125.6,233.51c0,2.24-1.33,6-6.82,6-4.38,0-6.83-2.13-6.83-6V222.59h2.94v10.92c0,2.52,1.4,3.85,4,3.85a3.64,3.64,0,0,0,4-3.85V222.59h2.8Z"/><path class="cls-1" d="M148,222.59v16.55h-2.63l-9.49-11.93v11.93h-2.8V222.59h2.69l9.49,12v-12Z"/><path class="cls-1" d="M155.62,239.14V222.59h2.94v16.55Z"/><path class="cls-1" d="M171.4,239.28H170l-5.64-16.69h3L171,233.93l4-11.34h2.73Z"/><path class="cls-1" d="M193.84,239.14H183.52V222.59h10v2.13h-7.1v4.83h5.18v2.14h-5.18V237h7.39Z"/><path class="cls-1" d="M210,239.46l-4.58-7.63h-1.86v7.31h-3V222.59h5.08c4.1,0,5.67,2.45,5.67,4.19a5,5,0,0,1-3.18,4.49l5.07,7.87Zm-5.22-9.77c2.25,0,3.58-1.19,3.58-2.59s-1.23-2.42-3.54-2.42h-1.29v5Z"/><path class="cls-1" d="M223.14,237.36c1.58,0,2.87-.91,2.87-2.17s-1.68-2.21-3.57-3.23c-1.65-.87-4.3-2.27-4.3-5.24,0-2.38,2.13-4.49,5.25-4.49a10.08,10.08,0,0,1,4.58,1l-.8,1.9a8.6,8.6,0,0,0-3.75-.74c-1.65,0-2.59,1-2.59,2,0,1.43,1.65,2.35,3.43,3.33,1.54.84,4.66,2.13,4.66,5.14,0,3.26-3.78,4.69-5.78,4.69a11.16,11.16,0,0,1-5.43-1.4l.91-1.93A10,10,0,0,0,223.14,237.36Z"/><path class="cls-1" d="M235.49,239.14V222.59h2.95v16.55Z"/><path class="cls-1" d="M244.06,222.59h13.83v2.13h-5.46v14.42h-2.94V224.72h-5.43Z"/><path class="cls-1" d="M276.35,222.59l-5.53,8.54v8h-2.94v-8l-5.68-8.54h3.12l4.2,6.51,4-6.51Z"/><path class="cls-1" d="M309.61,230.85a8.33,8.33,0,0,1-8.69,8.64c-5,0-8.71-3.25-8.71-8.64a8.38,8.38,0,0,1,8.71-8.62C306.24,222.23,309.61,225.7,309.61,230.85Zm-14.18,0c0,3.92,2.2,6.51,5.49,6.51s5.46-2.59,5.46-6.51-2.17-6.48-5.46-6.48S295.43,227,295.43,230.85Z"/><path class="cls-1" d="M315.65,239.14V222.59h9.49v2.13h-6.55v4.83h4.62v2.14h-4.62v7.45Z"/><path class="cls-1" d="M74.33,254.29V288.7H68.87L49.15,263.89V288.7H43.34V254.29h5.6l19.71,24.88V254.29Z"/><path class="cls-1" d="M103.82,288.7H82.36V254.29h20.88v4.44H88.47v10H99.24v4.44H88.47v11.06h15.35Z"/><path class="cls-1" d="M122.08,289H119l-11.72-34.7h6.33l7.93,24.22,5.09-14.26-3.27-10h6.25l7.64,23.57,8.23-23.57h5.67l-13,34.7H135l-6-18Z"/><path class="cls-1" d="M183.25,286.44c-2.4,1.53-5.67,3-12.51,3-12.08,0-18.48-9.1-18.48-18s6.4-17.89,18.48-17.89a24.56,24.56,0,0,1,11.78,2.69l-1.89,4.15a20.26,20.26,0,0,0-9.67-2.33c-7.49,0-12,5.6-12,13.38s4.73,13.46,12.59,13.46a20.33,20.33,0,0,0,9.82-2.25Z"/><path class="cls-1" d="M191.43,288.7h-6l15.21-34.56H203l13.53,34.56h-6.47l-3.27-8.59H195Zm9.68-23.28-4.29,10.26h8.29Z"/><path class="cls-1" d="M231.38,285c3.27,0,6-1.89,6-4.51,0-2.91-3.49-4.59-7.42-6.69C226.5,272,221,269.06,221,262.87c0-4.94,4.44-9.31,10.91-9.31a20.74,20.74,0,0,1,9.53,2l-1.67,3.92A18.16,18.16,0,0,0,232,258c-3.42,0-5.39,2.18-5.39,4.07,0,3,3.42,4.88,7.13,6.91,3.2,1.75,9.68,4.44,9.68,10.7,0,6.76-7.86,9.75-12,9.75a23.12,23.12,0,0,1-11.28-2.92l1.89-4A21.1,21.1,0,0,0,231.38,285Z"/><path class="cls-1" d="M246.39,254.29h28.73v4.44H263.78v30h-6.11v-30H246.39Z"/><path class="cls-1" d="M286.38,284.26h13.17v4.44H280.27V254.29h6.11Z"/><path class="cls-1" d="M325.73,288.7H304.26V254.29h20.88v4.44H310.37v10h10.77v4.44H310.37v11.06h15.36Z"/><path class="cls-1" d="M112.53,320.4h-2.87L117,303.77h1.12l6.51,16.63H121.5l-1.58-4.13h-5.68Zm4.66-11.2-2.07,4.94h4Z"/><path class="cls-1" d="M143.45,314.77c0,2.24-1.32,6-6.82,6-4.38,0-6.83-2.14-6.83-6V303.84h2.94v10.93c0,2.52,1.4,3.85,4,3.85a3.65,3.65,0,0,0,4-3.85V303.84h2.79Z"/><path class="cls-1" d="M155.09,318.62c1.57,0,2.87-.91,2.87-2.17s-1.68-2.21-3.57-3.23c-1.65-.87-4.31-2.27-4.31-5.25,0-2.38,2.14-4.48,5.25-4.48a10.1,10.1,0,0,1,4.59,1l-.81,1.89a8.72,8.72,0,0,0-3.74-.73c-1.65,0-2.59,1.05-2.59,2,0,1.43,1.64,2.34,3.43,3.32,1.54.84,4.65,2.14,4.65,5.15,0,3.26-3.77,4.7-5.77,4.7a11.14,11.14,0,0,1-5.43-1.41l.91-1.92A10.23,10.23,0,0,0,155.09,318.62Z"/><path class="cls-1" d="M165.32,303.84h13.83V306h-5.46V320.4h-2.94V306h-5.43Z"/><path class="cls-1" d="M194.2,320.72l-4.59-7.64h-1.86v7.32h-3V303.84h5.08c4.1,0,5.67,2.45,5.67,4.2a5,5,0,0,1-3.18,4.49l5.07,7.87ZM189,311c2.25,0,3.58-1.19,3.58-2.59s-1.23-2.42-3.54-2.42h-1.29v5Z"/><path class="cls-1" d="M203.92,320.4h-2.87l7.32-16.63h1.12L216,320.4h-3.12l-1.57-4.13h-5.67Zm4.66-11.2-2.07,4.94h4Z"/><path class="cls-1" d="M224.4,318.27h6.34v2.13h-9.28V303.84h2.94Z"/><path class="cls-1" d="M236.15,320.4V303.84h2.94V320.4Z"/><path class="cls-1" d="M247.32,320.4h-2.87l7.31-16.63h1.12l6.52,16.63h-3.12l-1.57-4.13H249ZM252,309.2l-2.06,4.94h4Z"/><path class="cls-1" d="M173.18,50.9a.06.06,0,0,1,.06.06s0,0-.06.07c-21.78,7.61-28.69,34.13-28.69,34.13a.1.1,0,0,0,0,.1.1.1,0,0,0,.14,0C184.08,33.6,220.8,50.31,220.8,50.31a.12.12,0,0,1,.09.15.14.14,0,0,1-.12.09c-.71-.07-11.56-.94-15.18,9.09l54.73,61.1a7.53,7.53,0,0,1-1.79,4.74c-.56-.83-2.92-1.93-4.48-2.43-2.14-.69-4.13-1-4.13-2.63a1.46,1.46,0,0,1,1.54-1.47,1.19,1.19,0,0,1,.73.22s0,0,0,0,0,0,0,0a1.61,1.61,0,0,0-1.46-.83,2.84,2.84,0,0,0-2.86,2.75,3.63,3.63,0,0,0,1.93,3.4c1.19.83,3.54,1.89,3.54,3.63a2.33,2.33,0,0,1-1.63,2.3,49.88,49.88,0,0,1-10.4,3.42c-.24-.85-.25-3.67-5.24-8.66C226.46,115.5,192,123.57,192,99.84c0-11,10.4-15.32,16.35-15,5.05.28,7.17,1.83,7.55,2.07a.09.09,0,0,0,.1,0,.1.1,0,0,0,0-.15s-3.78-8.31-14.52-8.31c-11.88,0-28.56,8.69-28.56,27.67,0,39.39,55.18,36.91,55.18,70.2,0,13-7.63,19.63-17.23,23a12.1,12.1,0,0,0,4.6-9.43c0-28.17-65.24-22.11-65.24-53,0-12,10.27-16.41,12.9-16.41a.1.1,0,0,0,.11-.1.09.09,0,0,0-.05-.09,10.22,10.22,0,0,0-5.11-1.07c-8.17,0-23.75,7.35-23.75,26.07,0,22.3,29,36.32,29,47.09a12.5,12.5,0,0,1-2.94,7.86c-23.83-7.6-54.28-31.49-54.28-74.1,0-51.53,48.12-75.24,67-75.24"/></svg>