<svg width="100" height="100" viewBox="0 0 100 100" fill="none" xmlns="http://www.w3.org/2000/svg">
<rect width="100" height="100" rx="22" fill="#EA5FCB"/>
<path fill-rule="evenodd" clip-rule="evenodd" d="M61 46C61 53.732 54.732 60 47 60C39.268 60 33 53.732 33 46C33 38.268 39.268 32 47 32C54.732 32 61 38.268 61 46ZM59.4701 64.1269C55.9259 66.5697 51.63 68 47 68C34.8497 68 25 58.1503 25 46C25 33.8497 34.8497 24 47 24C59.1503 24 69 33.8497 69 46C69 50.63 67.5697 54.9259 65.1269 58.4701L76.8284 70.1716L71.1716 75.8284L59.4701 64.1269Z" fill="white"/>
</svg>
