<svg id="Ebene_1" data-name="Ebene 1" xmlns="http://www.w3.org/2000/svg" viewBox="0 0 494.53 79.64"><defs><style>.cls-1{fill:#d8d8d8;}.cls-2{fill:#fff;}</style></defs><title>brickblock_logo_for_dark_background</title><g id="Ebene_2" data-name="Ebene 2"><g id="Ebene_1-2" data-name="Ebene 1-2"><g id="Ebene_2-2" data-name="Ebene 2-2"><g id="Ebene_1-2-2" data-name="Ebene 1-2-2"><polygon class="cls-1" points="36.27 79.64 71.36 62.09 71.36 18.91 36.27 36.45 36.27 79.64"/><polygon class="cls-2" points="0 17.54 33.74 0 70.17 17.54 35.09 35.09 0 17.54"/><path class="cls-2" d="M118.32,12h28.26C156.81,12,162,18.52,162,25.69c0,6.77-4.19,11.28-9.26,12.32,5.72.88,10.31,6.44,10.31,13.2,0,8-5.39,14.49-15.62,14.49H118.32Zm25.77,21.58c3.87,0,6.28-2.5,6.28-6,0-3.3-2.41-5.88-6.28-5.88H129.75V33.58Zm.4,22.38c4.35,0,6.92-2.5,6.92-6.36,0-3.38-2.42-6.28-6.92-6.28H129.75V56Z" transform="translate(0 0)"/><path class="cls-2" d="M171.29,26.82h10.23v5.32a16.64,16.64,0,0,1,12.4-6.2v10a12.86,12.86,0,0,0-2.82-.32c-3.38,0-7.89,1.93-9.58,4.43V65.71H171.29Z" transform="translate(0 0)"/><path class="cls-2" d="M199.07,15.71a6.12,6.12,0,1,1,6.12,6.12h0A6.17,6.17,0,0,1,199.07,15.71Zm1,11.11H210.3V65.71H200.11Z" transform="translate(0 0)"/><path class="cls-2" d="M238.44,25.85c8,0,12.8,3.46,15.38,7l-6.68,6.28a9.43,9.43,0,0,0-8.21-4.19c-6.2,0-10.55,4.51-10.55,11.28s4.35,11.35,10.55,11.35a9.82,9.82,0,0,0,8.21-4.19l6.68,6.2c-2.58,3.62-7.41,7.09-15.38,7.09-12,0-20.61-8.45-20.61-20.45S226.44,25.85,238.44,25.85Z" transform="translate(0 0)"/><path class="cls-2" d="M275.23,50.73l-4.67,5v10H260.33V12h10.23V44.13L285.3,26.82h12.56L282.47,44.45l15.86,21.26h-12.8Z" transform="translate(0 0)"/><path class="cls-2" d="M303.24,12h10.23V31.81a15,15,0,0,1,12-6c9.9,0,17.23,7.73,17.23,20.45,0,13-7.41,20.37-17.23,20.37a15.1,15.1,0,0,1-12-6v5H303.24Zm19,45.58c6,0,9.9-4.51,9.9-11.28s-4-11.35-9.9-11.35a11.28,11.28,0,0,0-8.78,4.51V53.23A11.38,11.38,0,0,0,322.24,57.58Z" transform="translate(0 0)"/><path class="cls-2" d="M350.26,12h10.23V65.71H350.26Z" transform="translate(0 0)"/><path class="cls-2" d="M368,46.22c0-11,7.73-20.37,20.53-20.37s20.61,9.34,20.61,20.37-7.73,20.45-20.61,20.45S368,57.34,368,46.22Zm30.52,0c0-6-3.62-11.28-10-11.28s-9.9,5.23-9.9,11.28,3.54,11.35,9.9,11.35S398.52,52.34,398.52,46.22Z" transform="translate(0 0)"/><path class="cls-2" d="M434.63,25.85c8,0,12.8,3.46,15.38,7l-6.68,6.28a9.43,9.43,0,0,0-8.21-4.19c-6.2,0-10.55,4.51-10.55,11.28s4.35,11.35,10.55,11.35a9.82,9.82,0,0,0,8.21-4.19l6.68,6.2c-2.58,3.62-7.41,7.09-15.38,7.09-12,0-20.61-8.45-20.61-20.45S422.63,25.85,434.63,25.85Z" transform="translate(0 0)"/><path class="cls-2" d="M471.42,50.73l-4.67,5v10H456.52V12h10.23V44.13l14.74-17.31H494L478.67,44.45l15.86,21.26h-12.8Z" transform="translate(0 0)"/></g></g></g></g></svg>